<?xml version="1.0" encoding="UTF-8"?>
<svg xmlns="http://www.w3.org/2000/svg" xmlns:xlink="http://www.w3.org/1999/xlink" width="32px" height="32px" viewBox="0 0 32 32" version="1.1">
<g id="surface1">
<path style=" stroke:none;fill-rule:nonzero;fill:rgb(0%,0%,0%);fill-opacity:1;" d="M 12.445312 16.457031 C 12.457031 14.582031 13.246094 12.824219 14.578125 11.699219 L 27.726562 0.601562 C 28.761719 -0.273438 30.199219 -0.183594 31.148438 0.804688 C 32.09375 1.796875 32.265625 3.410156 31.566406 4.628906 L 22.582031 20.257812 C 21.738281 21.730469 20.367188 22.699219 18.851562 22.945312 Z M 17.777344 25 C 17.777344 28.867188 14.996094 32 11.554688 32 L 3.554688 32 C 2.574219 32 1.777344 31.105469 1.777344 30 C 1.777344 28.894531 2.574219 28 3.554688 28 L 3.824219 28 C 4.800781 28 5.464844 26.820312 5.367188 25.726562 C 5.34375 25.488281 5.332031 25.242188 5.332031 25 C 5.332031 21.226562 7.996094 18.144531 11.316406 18.007812 L 17.765625 24.53125 C 17.773438 24.632812 17.777344 24.84375 17.777344 25 Z M 17.777344 25 "/>
</g>
</svg>
